# xmcd CD database file
#
# Track frame offsets:
#	150
#	18956
#	38295
#	55459
#	74972
#	92981
#	111938
#	130673
#	146092
#	163627
#	182623
#	199695
#	217472
#	236270
#
# Disc length: 3453 seconds
#
# Revision: 0
# Processed by: cddbd v1.5.2PL0 Copyright (c) Steve Scherf et al.
# Submitted via: CDex 1.51
#
DISCID=cf0d7b0e
DTITLE=Public Jazz Lounge - Public Jazz Chillout Lounge
DYEAR=2009
DGENRE=Jazz
TTITLE0=Trail Of Smoke
TTITLE1=Lunar Orbiter
TTITLE2=Use-By Date
TTITLE3=Love Coucher
TTITLE4=Sparkle Lounge
TTITLE5=Back To Basic
TTITLE6=Late Vintage
TTITLE7=Sophisticated View
TTITLE8=Procreation
TTITLE9=Frosting Lemon
TTITLE10=Nominative Case
TTITLE11=Dual Reflection
TTITLE12=Classification
TTITLE13=Evidently
EXTD=YEAR: 2009
EXTT0=
EXTT1=
EXTT2=
EXTT3=
EXTT4=
EXTT5=
EXTT6=
EXTT7=
EXTT8=
EXTT9=
EXTT10=
EXTT11=
EXTT12=
EXTT13=
PLAYORDER=
